<svg xmlns="http://www.w3.org/2000/svg" viewBox="0 0 800 650">
  <!-- Background -->
  <rect width="800" height="650" fill="#f4f4f4"/>
  
  <!-- Title -->
  <text x="400" y="40" text-anchor="middle" font-size="22" font-weight="bold" fill="#2C3E50">E-Commerce Microservices Architecture</text>

  <!-- Token Management Layer -->
  <rect x="50" y="560" width="700" height="80" fill="#34495E" rx="10" opacity="0.9"/>
  <text x="400" y="590" text-anchor="middle" fill="white" font-size="16" font-weight="bold">Token Management &amp; Security Layer</text>
  <g fill="white" font-size="12">
    <text x="100" y="620" text-anchor="start">• JWT Authentication</text>
    <text x="300" y="620" text-anchor="middle">• OAuth 2.0</text>
    <text x="500" y="620" text-anchor="middle">• Role-Based Access Control</text>
    <text x="700" y="620" text-anchor="end">• Mutual TLS</text>
  </g>

  <!-- API Gateway -->
  <rect x="250" y="90" width="300" height="60" fill="#4A90E2" rx="10"/>
  <text x="400" y="125" text-anchor="middle" fill="white" font-weight="bold" font-size="16">API Gateway</text>

  <!-- Communication Protocols -->
  <g font-size="12" fill="#666">
    <text x="50" y="180" transform="rotate(-45 50,180)">gRPC Communication</text>
    <text x="750" y="180" transform="rotate(45 750,180)">Apache Kafka Events</text>
  </g>

  <!-- Microservices Cluster -->
  <g transform="translate(50, 190)">
    <!-- Auth Service -->
    <rect x="0" y="0" width="180" height="70" fill="#2ECC71" rx="10"/>
    <text x="90" y="40" text-anchor="middle" fill="white" font-weight="bold">Auth Service</text>
    <circle cx="170" cy="10" r="8" fill="#E74C3C"/>

    <!-- Product Service -->
    <rect x="200" y="0" width="180" height="70" fill="#2ECC71" rx="10"/>
    <text x="290" y="40" text-anchor="middle" fill="white" font-weight="bold">Product Service</text>
    <circle cx="380" cy="10" r="8" fill="#E74C3C"/>

    <!-- Order Service -->
    <rect x="400" y="0" width="180" height="70" fill="#2ECC71" rx="10"/>
    <text x="490" y="40" text-anchor="middle" fill="white" font-weight="bold">Order Service</text>
    <circle cx="580" cy="10" r="8" fill="#E74C3C"/>

    <!-- Payment Service -->
    <rect x="600" y="0" width="180" height="70" fill="#2ECC71" rx="10"/>
    <text x="690" y="40" text-anchor="middle" fill="white" font-weight="bold">Payment Service</text>
    <circle cx="790" cy="10" r="8" fill="#E74C3C"/>
  </g>

  <!-- Additional Services -->
  <g transform="translate(250, 280)">
    <!-- Notification Service -->
    <rect x="0" y="0" width="180" height="60" fill="#F39C12" rx="10"/>
    <text x="90" y="35" text-anchor="middle" fill="white">Notification Service</text>

    <!-- Monitoring Service -->
    <rect x="200" y="0" width="180" height="60" fill="#F39C12" rx="10"/>
    <text x="290" y="35" text-anchor="middle" fill="white">Monitoring Service</text>
  </g>

  <!-- Databases -->
  <g transform="translate(50, 380)">
    <!-- PostgreSQL -->
    <rect x="0" y="0" width="180" height="70" fill="#9B59B6" rx="10"/>
    <text x="90" y="35" text-anchor="middle" fill="white">PostgreSQL</text>
    <text x="90" y="55" text-anchor="middle" fill="white" font-size="10">Main Data Storage</text>

    <!-- MongoDB -->
    <rect x="200" y="0" width="180" height="70" fill="#9B59B6" rx="10"/>
    <text x="290" y="35" text-anchor="middle" fill="white">MongoDB</text>
    <text x="290" y="55" text-anchor="middle" fill="white" font-size="10">Product Catalog</text>

    <!-- Redis -->
    <rect x="400" y="0" width="180" height="70" fill="#9B59B6" rx="10"/>
    <text x="490" y="35" text-anchor="middle" fill="white">Redis Cache</text>
    <text x="490" y="55" text-anchor="middle" fill="white" font-size="10">Performance Optimization</text>
  </g>

  <!-- Infrastructure -->
  <g transform="translate(250, 470)">
    <!-- Docker -->
    <rect x="0" y="0" width="140" height="50" fill="#E74C3C" rx="10"/>
    <text x="70" y="30" text-anchor="middle" fill="white" font-size="14">Docker</text>

    <!-- Kubernetes -->
    <rect x="160" y="0" width="140" height="50" fill="#E74C3C" rx="10"/>
    <text x="230" y="30" text-anchor="middle" fill="white" font-size="14">Kubernetes</text>

    <!-- Cloud Providers -->
    <rect x="320" y="0" width="140" height="50" fill="#E74C3C" rx="10"/>
    <text x="390" y="30" text-anchor="middle" fill="white" font-size="14">Multi-Cloud</text>
  </g>

  <!-- Connections -->
  <g stroke="#888" stroke-dasharray="5,5">
    <!-- API Gateway to Services -->
    <line x1="400" y1="150" x2="140" y2="190" />
    <line x1="400" y1="150" x2="290" y2="190" />
    <line x1="400" y1="150" x2="490" y2="190" />
    <line x1="400" y1="150" x2="690" y2="190" />

    <!-- Services to Databases -->
    <line x1="140" y1="260" x2="90" y2="380" />
    <line x1="290" y1="260" x2="290" y2="380" />
    <line x1="490" y1="260" x2="490" y2="380" />

    <!-- Infrastructure Connections -->
    <line x1="400" y1="260" x2="330" y2="470" />
  </g>

  <!-- Legend for Red Dots -->
  <g font-size="10">
    <text x="680" y="250" fill="#666">• Service Health Check</text>
  </g>
</svg>
